<svg xmlns="http://www.w3.org/2000/svg" viewBox="0 0 2695 942">
  <style>path{stroke:#333;stroke-width:2;fill:#5BBF72;fill-opacity:.6}path.locked{fill:#9CA3AF;pointer-events:none}</style>
  <path id="IND-001" d="M377.06 38.52L374.19 56.26L966.34 152.08L967.66 140.72L976.03 141.59L980.10 116.71L918.95 106.09L931.37 22.81L847.09 12.21L749.92 0.00L739.26 0.06L640.84 1.02L543.44 1.81L522.04 5.77Z"><title>IND-001 — Industrial Plot 001 (5.19 ha)</title></path>
  <path id="IND-002" d="M1764.99 888.26L1792.41 892.14L1908.74 908.62L1933.83 912.17L1936.79 909.02L1945.30 901.09L1953.36 894.80L1964.28 887.80L1976.46 881.72L1989.89 876.80L2000.33 874.13L2010.74 872.40L2019.31 871.64L2025.98 871.46L2035.30 871.81L2040.87 872.36L2043.88 872.58L2047.01 872.33L2049.63 871.72L2052.67 870.50L2054.89 869.19L2057.14 867.41L2059.10 865.32L2060.92 862.65L2063.25 858.83L2066.46 854.36L2069.80 850.40L2073.66 846.50L2076.05 844.37L2077.86 842.32L2078.68 840.97L2079.37 839.32L2079.82 837.53L2079.96 835.05L2079.58 832.56L2078.61 830.09L2077.53 828.42L2075.74 826.56L2071.82 823.07L2068.41 819.59L2063.95 814.23L2059.23 807.20L2055.65 800.34L2053.38 794.83L2050.75 785.92L2050.75 785.92L2049.93 781.82L2049.07 774.73L2048.87 769.32L2049.15 762.90L2050.08 755.96L2052.07 747.74L2054.66 740.55L2057.90 733.80L2059.71 730.64L2061.31 727.28L2062.21 724.42L2062.71 721.82L2062.91 719.36L2062.85 716.64L2062.80 715.50L2062.07 712.00L1986.60 715.26L1888.78 719.47L1790.95 723.68L1783.15 723.44Z"><title>IND-002 — Industrial Plot 002 (4.97 ha)</title></path>
  <path id="IND-003" d="M1408.24 304.77L1405.81 304.52L1308.41 294.50L1225.35 286.18L1245.80 171.06L1262.42 74.57L1344.28 87.65L1440.96 103.11L1443.61 103.52Z"><title>IND-003 — Industrial Plot 003 (3.84 ha)</title></path>
  <path id="IND-004" d="M2141.41 941.56L2025.08 925.09L1933.83 912.17L1936.79 909.02L1941.05 905.06L1945.30 901.09L1949.33 897.94L1953.36 894.80L1958.82 891.30L1964.28 887.80L1976.46 881.72L1987.64 877.63L2000.33 874.13L2010.74 872.40L2022.65 871.55L2030.64 871.64L2035.30 871.81L2038.08 872.08L2042.37 872.47L2045.45 872.45L2049.63 871.72L2052.67 870.50L2056.02 868.30L2058.12 866.36L2060.92 862.65L2062.09 860.74L2064.86 856.59L2066.46 854.36L2069.80 850.40L2071.73 848.45L2073.66 846.50L2074.85 845.43L2076.95 843.35L2078.27 841.65L2079.37 839.32L2079.89 836.29L2079.58 832.56L2078.07 829.26L2076.63 827.49L2073.11 824.27L2068.41 819.59L2063.95 814.23L2059.24 807.20L2055.65 800.34L2053.38 794.83L2050.75 785.92L2049.50 778.27L2048.97 772.03L2048.87 769.32L2049.01 766.11L2049.62 759.43L2049.85 757.73L2051.08 751.85L2051.59 749.38L2053.37 744.14L2054.66 740.55L2056.28 737.18L2057.90 733.80L2059.71 730.64L2061.31 727.28L2062.10 724.83L2062.41 723.55L2062.71 721.82L2062.81 720.59L2062.91 719.36L2062.87 717.55L2062.85 716.64L2062.80 715.50L2062.40 713.75L2062.07 712.00L2159.93 708.78L2236.28 706.26Z"><title>IND-004 — Industrial Plot 004 (3.44 ha)</title></path>
  <path id="IND-005" d="M1533.74 117.93L1443.15 103.45L1408.24 304.77L1499.27 314.12Z"><title>IND-005 — Industrial Plot 005 (1.85 ha)</title></path>
  <path id="IND-006" d="M1499.27 314.12L1408.24 304.77L1426.66 199.96L1443.61 103.52L1533.74 117.93Z"><title>IND-006 — Industrial Plot 006 (1.84 ha)</title></path>
  <path id="IND-007" d="M895.10 278.32L880.58 376.41L803.48 364.33L803.46 363.92L775.56 359.86L776.04 356.51L732.76 349.28L740.12 303.62L756.71 306.34L760.41 282.72L786.90 287.03L788.11 277.68L816.69 279.56L818.95 266.08Z"><title>IND-007 — Industrial Plot 007 (1.28 ha)</title></path>
  <path id="IND-008" d="M1763.65 677.69L1720.66 675.47L1689.82 669.06L1646.81 657.86L1655.64 573.89L1773.05 586.21Z"><title>IND-008 — Industrial Plot 008 (1.08 ha)</title></path>
  <path id="IND-009" d="M1763.61 678.08L1773.05 586.21L1895.66 599.07L1887.58 676.17L1870.60 676.86L1797.87 679.85Z"><title>IND-009 — Industrial Plot 009 (1.06 ha)</title></path>
  <path id="IND-010" d="M1887.62 675.77L1797.87 679.46L1763.65 677.69L1773.05 586.21L1895.66 599.07Z"><title>IND-010 — Industrial Plot 010 (1.06 ha)</title></path>
  <path id="IND-011" d="M1958.67 673.27L1967.29 589.43L2029.43 595.82L2029.75 592.72L2098.00 599.74L2091.01 667.80L2090.60 667.82L1961.75 673.15Z"><title>IND-011 — Industrial Plot 011 (1.00 ha)</title></path>
  <path id="IND-012" d="M387.50 391.54L292.12 377.54L308.28 282.44L403.99 298.61Z"><title>IND-012 — Industrial Plot 012 (0.92 ha)</title></path>
  <path id="IND-013" d="M1655.64 573.89L1646.78 658.14L1637.90 655.76L1610.53 648.70L1586.49 642.55L1570.62 638.27L1560.37 635.63L1545.52 631.71L1527.32 626.97L1534.32 561.16Z"><title>IND-013 — Industrial Plot 013 (0.92 ha)</title></path>
  <path id="IND-014" d="M292.12 377.54L347.34 385.22L387.50 391.54L403.99 298.61L308.28 282.44Z"><title>IND-014 — Industrial Plot 014 (0.92 ha)</title></path>
  <path id="IND-015" d="M403.95 298.84L492.20 313.56L477.06 405.84L465.91 403.79L387.54 391.32Z"><title>IND-015 — Industrial Plot 015 (0.84 ha)</title></path>
  <path id="IND-016" d="M584.74 235.90L593.21 230.27L633.40 236.28L673.56 242.29L666.57 285.19L659.57 328.08L635.48 324.39L577.65 315.97L572.76 309.17Z"><title>IND-016 — Industrial Plot 016 (0.77 ha)</title></path>
  <path id="IND-017" d="M1533.10 412.48L1434.76 402.37L1427.40 473.98L1533.53 484.89L1540.09 421.07Z"><title>IND-017 — Industrial Plot 017 (0.77 ha)</title></path>
  <path id="IND-018" d="M1310.67 294.95L1407.71 304.93L1394.34 382.54L1317.54 374.64L1314.05 374.27L1310.90 373.90L1307.44 373.47L1304.44 373.07L1302.67 372.82Z"><title>IND-018 — Industrial Plot 018 (0.75 ha)</title></path>
  <path id="IND-019" d="M2686.93 515.44L2584.55 504.91L2592.08 431.72L2594.07 434.25L2690.72 444.18L2695.43 450.49Z"><title>IND-019 — Industrial Plot 019 (0.74 ha)</title></path>
  <path id="IND-020" d="M289.94 73.63L299.28 173.83L300.94 173.68L302.59 173.55L304.19 173.43L306.11 173.29L307.87 173.19L310.36 173.06L312.47 172.97L315.59 172.87L317.73 172.82L320.83 172.79L323.75 172.79L326.52 172.83L329.86 172.92L332.35 173.02L334.30 173.11L335.43 173.17L341.84 133.55L361.17 136.68L375.71 46.85L333.34 56.39Z"><title>IND-020 — Industrial Plot 020 (0.73 ha)</title></path>
  <path id="IND-021" d="M698.33 345.42L633.79 335.76L618.13 431.85L688.40 444.89L703.28 352.27Z"><title>IND-021 — Industrial Plot 021 (0.70 ha)</title></path>
  <path id="IND-022" d="M2207.01 663.10L2161.69 664.91L2091.01 667.80L2098.00 599.74L2212.31 611.49Z"><title>IND-022 — Industrial Plot 022 (0.69 ha)</title></path>
  <path id="IND-023" d="M1146.49 337.16L1134.58 343.69L1140.38 344.63L1137.86 360.10L1132.07 359.15L1123.10 414.07L1219.27 429.63L1233.77 372.82L1220.11 368.13L1206.62 362.93L1198.92 359.72L1191.67 356.60L1184.25 353.41L1178.90 351.10L1172.70 348.44L1167.98 346.41L1161.43 343.59L1156.01 341.25L1151.29 339.22Z"><title>IND-023 — Industrial Plot 023 (0.68 ha)</title></path>
  <path id="IND-024" d="M1647.25 424.21L1640.26 492.24L1735.51 502.03L1742.51 434.01Z"><title>IND-024 — Industrial Plot 024 (0.65 ha)</title></path>
  <path id="IND-025" d="M1551.39 422.23L1559.98 415.24L1647.25 424.21L1640.26 492.24L1545.19 482.46Z"><title>IND-025 — Industrial Plot 025 (0.65 ha)</title></path>
  <path id="IND-026" d="M2548.40 703.30L2489.55 679.42L2441.81 667.39L2446.74 619.43L2555.87 630.65Z"><title>IND-026 — Industrial Plot 026 (0.64 ha)</title></path>
  <path id="IND-027" d="M1302.67 372.82L1288.50 370.53L1279.00 368.69L1267.81 366.20L1260.20 364.30L1248.32 361.01L1239.81 358.39L1229.85 355.06L1222.78 352.50L1218.02 350.69L1215.09 349.58L1225.35 286.18L1310.67 294.96Z"><title>IND-027 — Industrial Plot 027 (0.64 ha)</title></path>
  <path id="IND-028" d="M247.03 184.58L241.56 186.43L236.21 188.37L225.27 192.70L218.81 195.29L205.53 200.61L179.57 211.01L147.28 130.43L164.39 123.49L214.57 103.57Z"><title>IND-028 — Industrial Plot 028 (0.63 ha)</title></path>
  <path id="IND-029" d="M554.75 420.33L569.99 326.39L633.81 335.66L618.10 432.04Z"><title>IND-029 — Industrial Plot 029 (0.62 ha)</title></path>
  <path id="IND-030" d="M433.14 203.43L502.73 214.70L488.70 301.46L419.16 289.87Z"><title>IND-030 — Industrial Plot 030 (0.62 ha)</title></path>
  <path id="IND-031" d="M1863.71 430.80L1785.79 422.79L1793.85 344.42L1871.77 352.43Z"><title>IND-031 — Industrial Plot 031 (0.62 ha)</title></path>
  <path id="IND-032" d="M1941.63 438.81L1863.71 430.80L1871.77 352.43L1949.69 360.44Z"><title>IND-032 — Industrial Plot 032 (0.62 ha)</title></path>
  <path id="IND-033" d="M1707.87 414.78L1629.95 406.77L1638.01 328.40L1715.93 336.41Z"><title>IND-033 — Industrial Plot 033 (0.62 ha)</title></path>
  <path id="IND-034" d="M2265.00 472.06L2187.08 464.04L2195.13 385.68L2273.05 393.69Z"><title>IND-034 — Industrial Plot 034 (0.62 ha)</title></path>
  <path id="IND-035" d="M2109.16 456.03L2031.24 448.02L2039.29 369.65L2117.21 377.66Z"><title>IND-035 — Industrial Plot 035 (0.62 ha)</title></path>
  <path id="IND-036" d="M2187.08 464.04L2109.16 456.03L2117.21 377.66L2195.13 385.68Z"><title>IND-036 — Industrial Plot 036 (0.62 ha)</title></path>
  <path id="IND-037" d="M2342.92 480.07L2265.00 472.06L2273.05 393.69L2350.97 401.70Z"><title>IND-037 — Industrial Plot 037 (0.62 ha)</title></path>
  <path id="IND-038" d="M1785.79 422.79L1707.87 414.77L1715.93 336.41L1793.85 344.42Z"><title>IND-038 — Industrial Plot 038 (0.62 ha)</title></path>
  <path id="IND-039" d="M1638.01 328.40L1629.95 406.77L1552.03 398.75L1560.10 320.38Z"><title>IND-039 — Industrial Plot 039 (0.62 ha)</title></path>
  <path id="IND-040" d="M299.28 173.83L292.17 174.60L288.56 175.07L284.18 175.72L279.42 176.51L274.12 177.51L269.24 178.54L266.18 179.24L261.20 180.47L255.75 181.94L251.86 183.08L247.03 184.58L214.57 103.57L255.01 87.51L289.94 73.63Z"><title>IND-040 — Industrial Plot 040 (0.62 ha)</title></path>
  <path id="IND-041" d="M502.73 214.70L563.52 224.53L571.06 233.65L558.96 307.30L553.37 312.24L488.70 301.46Z"><title>IND-041 — Industrial Plot 041 (0.62 ha)</title></path>
  <path id="IND-042" d="M775.21 356.98L715.71 347.37L699.53 447.24L758.86 458.21Z"><title>IND-042 — Industrial Plot 042 (0.61 ha)</title></path>
  <path id="IND-043" d="M246.04 272.57L308.28 282.44L292.12 377.54L229.56 368.56Z"><title>IND-043 — Industrial Plot 043 (0.61 ha)</title></path>
  <path id="IND-044" d="M179.57 211.01L168.75 215.17L157.82 219.02L154.66 220.09L150.38 221.19L147.73 221.64L144.99 222.09L143.21 222.39L142.06 222.58L140.21 222.93L138.02 223.45L136.31 223.94L133.03 225.10L110.74 234.04L80.12 157.64L147.28 130.43Z"><title>IND-044 — Industrial Plot 044 (0.61 ha)</title></path>
  <path id="IND-045" d="M419.16 289.87L356.00 279.34L350.77 272.09L362.44 199.93L371.43 193.45L433.14 203.43Z"><title>IND-045 — Industrial Plot 045 (0.61 ha)</title></path>
  <path id="IND-046" d="M2031.24 448.02L1954.09 440.09L1962.56 361.76L2039.29 369.65Z"><title>IND-046 — Industrial Plot 046 (0.61 ha)</title></path>
  <path id="IND-047" d="M540.55 417.72L555.96 324.19L492.19 313.61L477.02 406.05Z"><title>IND-047 — Industrial Plot 047 (0.61 ha)</title></path>
  <path id="IND-048" d="M1471.41 382.61L1462.26 389.52L1394.34 382.54L1407.71 304.93L1483.73 312.47Z"><title>IND-048 — Industrial Plot 048 (0.60 ha)</title></path>
  <path id="IND-049" d="M2509.52 497.20L2434.50 489.48L2442.56 411.12L2517.58 418.83Z"><title>IND-049 — Industrial Plot 049 (0.59 ha)</title></path>
  <path id="IND-050" d="M2584.55 504.91L2509.52 497.20L2517.58 418.83L2589.60 426.23L2589.33 428.25L2592.08 431.72Z"><title>IND-050 — Industrial Plot 050 (0.59 ha)</title></path>
  <path id="IND-051" d="M2324.57 658.50L2266.04 660.73L2207.01 663.10L2212.31 611.49L2215.07 611.77L2215.07 611.77L2215.07 611.77L2236.33 611.77L2329.76 608.03Z"><title>IND-051 — Industrial Plot 051 (0.59 ha)</title></path>
  <path id="IND-052" d="M2434.50 489.48L2370.19 482.87L2374.19 443.91L2354.71 441.91L2358.77 402.50L2442.56 411.12Z"><title>IND-052 — Industrial Plot 052 (0.59 ha)</title></path>
  <path id="IND-053" d="M1735.51 502.03L1830.58 511.80L1833.56 482.74L1814.08 480.74L1818.09 441.78L1742.51 434.01Z"><title>IND-053 — Industrial Plot 053 (0.58 ha)</title></path>
  <path id="IND-054" d="M2149.25 475.83L2244.51 485.62L2238.51 543.90L2143.26 534.11Z"><title>IND-054 — Industrial Plot 054 (0.56 ha)</title></path>
  <path id="IND-055" d="M2048.20 524.34L2053.39 473.84L2061.98 466.85L2149.25 475.83L2143.26 534.11Z"><title>IND-055 — Industrial Plot 055 (0.56 ha)</title></path>
  <path id="IND-056" d="M2244.51 485.62L2238.51 543.90L2333.58 553.68L2338.77 503.19L2331.78 494.59Z"><title>IND-056 — Industrial Plot 056 (0.56 ha)</title></path>
  <path id="IND-057" d="M2337.62 608.21L2446.74 619.43L2441.81 667.39L2424.31 662.98L2380.71 657.98L2337.21 658.02L2332.48 658.20Z"><title>IND-057 — Industrial Plot 057 (0.51 ha)</title></path>
  <path id="IND-058" d="M1552.03 398.75L1492.22 392.60L1486.75 385.36L1499.27 314.12L1560.10 320.38Z"><title>IND-058 — Industrial Plot 058 (0.50 ha)</title></path>
  <path id="IND-059" d="M1291.17 418.29L1361.26 436.62L1344.42 501.03L1313.19 492.86L1305.60 490.87L1274.16 482.66L1281.56 454.64L1291.17 418.29Z"><title>IND-059 — Industrial Plot 059 (0.48 ha)</title></path>
  <path id="IND-060" d="M2677.62 586.66L2592.98 577.96L2598.73 522.04L2684.91 530.90Z"><title>IND-060 — Industrial Plot 060 (0.48 ha)</title></path>
  <path id="IND-061" d="M2670.33 642.42L2587.23 633.87L2592.98 577.96L2677.62 586.66Z"><title>IND-061 — Industrial Plot 061 (0.47 ha)</title></path>
  <path id="IND-062" d="M452.38 190.76L373.92 178.06L367.44 169.08L374.88 123.05L461.03 137.29Z"><title>IND-062 — Industrial Plot 062 (0.47 ha)</title></path>
  <path id="IND-063" d="M538.36 197.22L529.92 203.30L452.38 190.76L461.03 137.29L545.84 151.01Z"><title>IND-063 — Industrial Plot 063 (0.46 ha)</title></path>
  <path id="IND-064" d="M1371.91 395.90L1356.35 455.41L1427.40 473.98L1434.76 402.37Z"><title>IND-064 — Industrial Plot 064 (0.45 ha)</title></path>
  <path id="IND-065" d="M1839.90 532.18L1835.68 573.18L1842.92 582.12L1915.20 589.69L1924.11 582.42L1928.42 541.28Z"><title>IND-065 — Industrial Plot 065 (0.43 ha)</title></path>
  <path id="IND-066" d="M1218.09 306.52L1198.76 303.39L1192.82 340.12L1145.44 319.74L1140.81 311.29L1149.04 260.40L1223.75 272.48Z"><title>IND-066 — Industrial Plot 066 (0.43 ha)</title></path>
  <path id="IND-067" d="M673.59 242.29L712.03 248.58L718.49 257.57L706.94 329.52L700.40 334.24L659.56 328.13Z"><title>IND-067 — Industrial Plot 067 (0.40 ha)</title></path>
  <path id="IND-068" d="M2429.66 504.66L2508.64 512.78L2503.47 563.06L2424.49 554.94Z"><title>IND-068 — Industrial Plot 068 (0.40 ha)</title></path>
  <path id="IND-069" d="M2586.63 528.67L2582.26 571.17L2503.47 563.06L2508.64 512.78L2579.64 520.08Z"><title>IND-069 — Industrial Plot 069 (0.40 ha)</title></path>
  <path id="IND-070" d="M2350.07 504.35L2358.66 497.36L2429.66 504.66L2424.49 554.94L2345.70 546.84Z"><title>IND-070 — Industrial Plot 070 (0.40 ha)</title></path>
  <path id="IND-071" d="M1299.17 388.00L1295.64 387.53L1290.50 386.70L1284.40 385.63L1280.41 384.87L1276.06 384.00L1271.83 383.10L1266.64 381.94L1262.62 380.98L1256.27 379.39L1252.17 378.30L1247.29 376.94L1243.03 375.70L1237.94 374.15L1233.76 372.88L1219.27 429.63L1283.68 446.64Z"><title>IND-071 — Industrial Plot 071 (0.39 ha)</title></path>
  <path id="IND-072" d="M1940.67 586.70L1945.25 543.01L2033.92 552.13L2029.43 595.82Z"><title>IND-072 — Industrial Plot 072 (0.39 ha)</title></path>
  <path id="IND-073" d="M1945.25 543.01L1949.83 499.32L2038.41 508.43L2033.92 552.13Z"><title>IND-073 — Industrial Plot 073 (0.39 ha)</title></path>
  <path id="IND-074" d="M1928.42 541.28L1839.90 532.18L1844.39 488.48L1933.00 497.59Z"><title>IND-074 — Industrial Plot 074 (0.39 ha)</title></path>
  <path id="IND-075" d="M1224.50 547.36L1275.99 560.10L1283.05 561.96L1299.10 500.51L1240.72 485.26Z"><title>IND-075 — Industrial Plot 075 (0.38 ha)</title></path>
  <path id="IND-076" d="M1848.07 452.73L1856.66 445.74L1929.75 453.26L1936.75 461.85L1933.00 497.59L1844.39 488.48Z"><title>IND-076 — Industrial Plot 076 (0.38 ha)</title></path>
  <path id="IND-077" d="M123.50 140.49L80.27 158.00L110.74 234.04L133.03 225.10L134.77 224.45L135.65 224.16L136.52 223.88L137.58 223.57L139.10 223.18L139.96 222.98L140.81 222.81L141.49 222.68L144.65 222.15L146.21 221.89L147.78 221.63L148.97 221.43L150.15 221.23L151.27 220.99L152.39 220.75L154.75 220.05Z"><title>IND-077 — Industrial Plot 077 (0.38 ha)</title></path>
  <path id="IND-078" d="M1949.83 499.32L1953.57 463.61L1962.26 456.60L2035.10 464.09L2042.09 472.68L2038.41 508.43Z"><title>IND-078 — Industrial Plot 078 (0.38 ha)</title></path>
  <path id="IND-079" d="M1474.70 478.84L1533.53 484.89L1527.57 542.84L1521.22 547.25L1460.96 531.50Z"><title>IND-079 — Industrial Plot 079 (0.37 ha)</title></path>
  <path id="IND-080" d="M80.12 157.64L100.41 208.27L46.50 229.16L33.39 196.44L6.73 206.77L0.00 189.97L57.01 167.00Z"><title>IND-080 — Industrial Plot 080 (0.37 ha)</title></path>
  <path id="IND-081" d="M1524.75 563.52L1521.81 558.68L1477.20 547.03L1461.02 608.97L1518.44 624.31Z"><title>IND-081 — Industrial Plot 081 (0.35 ha)</title></path>
  <path id="IND-082" d="M1219.27 429.63L1209.79 465.69L1206.21 464.99L1127.98 451.69L1125.88 450.67L1123.68 449.03L1122.41 447.72L1121.49 446.49L1120.70 445.15L1120.15 443.95L1119.65 442.45L1119.30 440.72L1119.18 439.05L1119.20 438.05L1123.10 414.07Z"><title>IND-082 — Industrial Plot 082 (0.35 ha)</title></path>
  <path id="IND-083" d="M1427.40 473.98L1356.35 455.41L1344.42 501.04L1415.49 519.61Z"><title>IND-083 — Industrial Plot 083 (0.35 ha)</title></path>
  <path id="IND-084" d="M2105.15 530.19L2099.17 588.44L2156.32 594.31L2162.31 536.07Z"><title>IND-084 — Industrial Plot 084 (0.34 ha)</title></path>
  <path id="IND-085" d="M2156.32 594.31L2213.47 600.19L2219.46 541.94L2162.31 536.07Z"><title>IND-085 — Industrial Plot 085 (0.34 ha)</title></path>
  <path id="IND-086" d="M749.81 134.50L756.55 129.64L811.19 138.48L802.45 192.50L742.02 182.72Z"><title>IND-086 — Industrial Plot 086 (0.33 ha)</title></path>
  <path id="IND-087" d="M1240.72 485.26L1203.77 475.61L1195.34 474.70L1185.05 482.44L1176.56 535.50L1224.50 547.36Z"><title>IND-087 — Industrial Plot 087 (0.33 ha)</title></path>
  <path id="IND-088" d="M2043.01 574.79L2048.20 524.34L2105.15 530.19L2099.17 588.44L2050.00 583.38Z"><title>IND-088 — Industrial Plot 088 (0.33 ha)</title></path>
  <path id="IND-089" d="M742.02 182.72L802.45 192.49L793.80 246.00L741.10 237.48L734.62 228.49Z"><title>IND-089 — Industrial Plot 089 (0.33 ha)</title></path>
  <path id="IND-090" d="M1776.13 575.12L1728.51 570.13L1735.51 502.03L1783.14 506.93Z"><title>IND-090 — Industrial Plot 090 (0.33 ha)</title></path>
  <path id="IND-091" d="M1687.89 497.13L1735.51 502.03L1728.51 570.13L1680.89 565.13Z"><title>IND-091 — Industrial Plot 091 (0.33 ha)</title></path>
  <path id="IND-092" d="M1640.26 492.24L1687.89 497.13L1680.89 565.13L1633.27 560.14Z"><title>IND-092 — Industrial Plot 092 (0.33 ha)</title></path>
  <path id="IND-093" d="M1585.66 555.15L1592.63 487.34L1640.26 492.24L1633.27 560.14Z"><title>IND-093 — Industrial Plot 093 (0.33 ha)</title></path>
  <path id="IND-094" d="M261.29 263.55L243.98 260.66L242.06 260.40L240.85 260.28L239.23 260.15L238.01 260.10L236.19 260.06L234.50 260.09L232.62 260.19L230.40 260.39L228.27 260.68L225.72 261.15L224.20 261.49L222.92 261.82L221.62 262.18L220.54 262.51L219.16 262.98L201.55 219.01L237.29 204.68L240.91 203.26L248.31 200.59L254.66 198.52L259.48 197.09L264.24 195.78L268.40 194.74L272.59 193.77Z"><title>IND-094 — Industrial Plot 094 (0.33 ha)</title></path>
  <path id="IND-095" d="M1776.13 575.12L1815.48 579.24L1824.39 572.00L1830.58 511.80L1783.14 506.93Z"><title>IND-095 — Industrial Plot 095 (0.32 ha)</title></path>
  <path id="IND-096" d="M1543.82 550.77L1538.81 544.60L1545.19 482.46L1592.63 487.34L1585.66 555.15Z"><title>IND-096 — Industrial Plot 096 (0.32 ha)</title></path>
  <path id="IND-097" d="M440.98 78.58L432.23 132.63L489.82 141.95L498.57 87.90Z"><title>IND-097 — Industrial Plot 097 (0.32 ha)</title></path>
  <path id="IND-098" d="M2271.36 599.00L2229.85 600.66L2226.57 600.80L2223.66 600.85L2221.76 600.83L2220.22 600.77L2218.44 600.67L2216.59 600.51L2214.83 600.33L2213.47 600.19L2219.46 541.94L2276.62 547.82Z"><title>IND-098 — Industrial Plot 098 (0.32 ha)</title></path>
  <path id="IND-099" d="M391.32 70.54L382.33 77.02L374.84 123.34L432.23 132.63L440.98 78.58Z"><title>IND-099 — Industrial Plot 099 (0.32 ha)</title></path>
  <path id="IND-100" d="M498.57 87.90L489.82 141.95L545.84 151.01L553.65 102.76L548.78 96.02Z"><title>IND-100 — Industrial Plot 100 (0.31 ha)</title></path>
  <path id="IND-101" d="M300.50 270.08L261.30 263.55L272.59 193.77L276.33 192.97L281.03 192.06L287.48 190.98L294.18 190.06L300.23 189.40L307.60 188.82L310.82 188.64L313.71 188.52Z"><title>IND-101 — Industrial Plot 101 (0.31 ha)</title></path>
  <path id="IND-102" d="M2518.05 615.34L2458.81 609.25L2463.98 559.00L2523.22 565.09Z"><title>IND-102 — Industrial Plot 102 (0.30 ha)</title></path>
  <path id="IND-103" d="M2458.81 609.25L2399.57 603.16L2404.74 552.91L2463.98 559.00Z"><title>IND-103 — Industrial Plot 103 (0.30 ha)</title></path>
  <path id="IND-104" d="M219.16 262.98L217.21 263.71L161.12 286.19L160.58 285.76L159.67 284.80L159.28 284.27L159.03 283.88L158.84 283.53L158.72 283.28L158.51 282.81L143.49 245.34L146.91 243.94L147.96 243.41L148.82 242.93L149.59 242.44L150.27 241.98L151.07 241.39L151.63 240.95L152.12 240.54L152.53 240.18L153.02 239.73L153.52 239.28L154.20 238.70L154.66 238.34L155.25 237.92L155.70 237.63L156.53 237.15L157.05 236.88L157.69 236.58L201.55 219.01Z"><title>IND-104 — Industrial Plot 104 (0.30 ha)</title></path>
  <path id="IND-105" d="M2399.57 603.16L2346.38 597.69L2341.13 591.25L2345.70 546.84L2404.74 552.91Z"><title>IND-105 — Industrial Plot 105 (0.30 ha)</title></path>
  <path id="IND-106" d="M2577.90 613.62L2569.30 620.61L2518.05 615.34L2523.22 565.09L2582.26 571.17Z"><title>IND-106 — Industrial Plot 106 (0.30 ha)</title></path>
  <path id="IND-107" d="M613.02 217.10L619.10 174.12L685.26 184.84L678.34 227.22Z"><title>IND-107 — Industrial Plot 107 (0.29 ha)</title></path>
  <path id="IND-108" d="M2276.62 547.82L2333.58 553.68L2329.76 590.84L2323.29 596.92L2271.36 599.00Z"><title>IND-108 — Industrial Plot 108 (0.27 ha)</title></path>
  <path id="IND-109" d="M1361.26 436.62L1291.17 418.29L1299.17 388.00L1307.54 389.19L1315.95 390.15L1371.91 395.90Z"><title>IND-109 — Industrial Plot 109 (0.26 ha)</title></path>
  <path id="IND-110" d="M110.74 234.04L93.42 240.98L92.38 241.40L91.52 241.74L90.29 242.30L89.44 242.73L88.54 243.24L87.63 243.81L86.71 244.45L85.91 245.06L85.24 245.61L84.76 246.03L83.77 246.93L82.88 247.68L82.03 248.29L81.36 248.72L80.61 249.14L80.04 249.43L79.31 249.75L37.60 266.47L31.77 251.93L26.02 237.09L100.41 208.27Z"><title>IND-110 — Industrial Plot 110 (0.24 ha)</title></path>
  <path id="IND-111" d="M1958.71 672.88L1942.39 673.54L1932.66 663.17L1940.67 586.70L1967.29 589.43Z"><title>IND-111 — Industrial Plot 111 (0.22 ha)</title></path>
  <path id="IND-112" d="M613.02 217.10L618.02 182.28L553.78 173.05L550.43 196.37L550.33 198.26L557.42 209.14Z"><title>IND-112 — Industrial Plot 112 (0.22 ha)</title></path>
  <path id="IND-113" d="M564.86 104.57L571.59 99.71L601.01 104.47L590.93 166.76L555.72 161.06Z"><title>IND-113 — Industrial Plot 113 (0.22 ha)</title></path>
  <path id="IND-114" d="M624.76 172.23L590.93 166.76L601.01 104.47L634.84 109.94Z"><title>IND-114 — Industrial Plot 114 (0.22 ha)</title></path>
  <path id="IND-115" d="M1887.58 676.17L1907.85 675.34L1908.28 674.93L1915.08 668.55L1921.22 609.95L1914.02 600.99L1895.66 599.07Z"><title>IND-115 — Industrial Plot 115 (0.20 ha)</title></path>
  <path id="IND-116" d="M1887.62 675.77L1908.28 674.93L1915.08 668.55L1921.22 609.95L1914.02 600.99L1895.66 599.07Z"><title>IND-116 — Industrial Plot 116 (0.19 ha)</title></path>
  <path id="IND-117" d="M942.23 359.55L921.83 355.54L925.29 338.48L907.80 334.87L912.77 310.35L929.73 313.84L935.37 287.28L956.44 290.69Z"><title>IND-117 — Industrial Plot 117 (0.19 ha)</title></path>
  <path id="IND-118" d="M109.00 351.44L112.44 325.89L102.86 301.83L32.70 290.78Z"><title>IND-118 — Industrial Plot 118 (0.19 ha)</title></path>
  <path id="IND-119" d="M1100.14 366.41L1098.42 358.60L1096.41 352.82L1094.89 349.13L1090.68 341.09L1084.32 332.67L1077.20 325.10L1070.40 320.31L1076.98 310.48L1088.54 314.03L1099.32 317.69L1108.57 321.13L1114.10 323.32L1120.87 326.13L1125.53 334.59L1120.39 366.34Z"><title>IND-119 — Industrial Plot 119 (0.17 ha)</title></path>
  <path id="IND-120" d="M29.13 298.35L26.33 313.35L36.27 339.93L41.61 340.74L48.57 341.88L53.23 342.56L61.37 343.93L66.05 344.66L69.50 345.23L72.88 345.73L79.95 346.84L83.49 347.42L88.11 348.18L91.62 348.70L96.25 349.44L99.74 350.01L103.26 350.53L106.74 351.07L109.00 351.44Z"><title>IND-120 — Industrial Plot 120 (0.16 ha)</title></path>
  <path id="IND-121" d="M793.79 246.06L832.47 252.32L838.73 213.67L800.04 207.41Z"><title>IND-121 — Industrial Plot 121 (0.15 ha)</title></path>
  <path id="IND-122" d="M1451.05 476.41L1474.70 478.84L1460.96 531.50L1438.22 525.56Z"><title>IND-122 — Industrial Plot 122 (0.12 ha)</title></path>
  <path id="IND-123" d="M1427.40 473.98L1451.05 476.41L1438.22 525.56L1415.49 519.61Z"><title>IND-123 — Industrial Plot 123 (0.12 ha)</title></path>
  <path id="IND-124" d="M19.84 239.49L6.73 206.77L33.39 196.44L46.50 229.16Z"><title>IND-124 — Industrial Plot 124 (0.10 ha)</title></path>
</svg>
